<svg xmlns="http://www.w3.org/2000/svg" width="146.851" height="188.766" viewBox="0 0 146.851 188.766">
  <g id="trash" transform="translate(0)">
    <path id="Trazado_1" data-name="Trazado 1" d="M136.859,11.395h31.548V16.7H179.8V10.651A10.659,10.659,0,0,0,169.157,0H136.11a10.661,10.661,0,0,0-10.646,10.651V16.7h11.395Zm0,0" transform="translate(-79.208 0)" fill="#fff"/>
    <path id="Trazado_2" data-name="Trazado 2" d="M152.467,167.75H45.509a5.018,5.018,0,0,0-5,5.422l8.942,110.57a11.876,11.876,0,0,0,11.832,10.927h75.412a11.876,11.876,0,0,0,11.832-10.928l8.942-110.569a5.016,5.016,0,0,0-5-5.422ZM71.407,282.876c-.12.007-.239.012-.357.012a5.7,5.7,0,0,1-5.68-5.347l-5.6-90.772a5.7,5.7,0,0,1,11.373-.7l5.6,90.772a5.7,5.7,0,0,1-5.334,6.037Zm33.341-5.686a5.7,5.7,0,0,1-11.395,0V186.416a5.7,5.7,0,1,1,11.395,0Zm33.461-90.438-5.35,90.772a5.7,5.7,0,0,1-5.681,5.362c-.112,0-.226,0-.34-.009a5.7,5.7,0,0,1-5.352-6.023l5.349-90.774a5.7,5.7,0,0,1,11.374.671Zm0,0" transform="translate(-25.562 -105.903)" fill="#fff"/>
    <path id="Trazado_3" data-name="Trazado 3" d="M146.606,92.379l-3.742-11.216a7.245,7.245,0,0,0-6.872-4.951H10.858a7.243,7.243,0,0,0-6.871,4.951L.245,92.379A4.706,4.706,0,0,0,4.7,98.566H142.148a4.639,4.639,0,0,0,2.489-.719,4.693,4.693,0,0,0,1.97-5.468Zm0,0" transform="translate(0 -48.114)" fill="#fff"/>
  </g>
</svg>
